# xmcd
#
# Track frame offsets:
#	150
#	9045
#	18760
#	30470
#	41777
#	49742
#	61355
#	74577
#	85415
#	94492
#	106795
#	117397
#	128942
#	139750
#	152057
#	160805
#	168602
#	179410
#	189382
#	198852
#	209290
#	222797
#	233225
#	244017
#
# Disc length: 3408 seconds
#
# Revision: 1
# Processed by: cddbd v1.5.1PL0 Copyright (c) Steve Scherf et al.
# Submitted via: EasyCDDAExtractor 7.0.0.1
#
DISCID=4b0d4e18
DTITLE=The Shadows - Complete Singles As and Bs 1959-1980 CD1
DYEAR=2004
DGENRE=Instrumental
TTITLE0=Feelin' Fine (as The Drifter)
TTITLE1=Don't Be Fool (With Love)(as The Drifter)
TTITLE2=Driftin' (as The Drifter)
TTITLE3=Jet Black (as The Drifter)
TTITLE4=Saturday Dance
TTITLE5=Lonesome Fella
TTITLE6=Apache
TTITLE7=Quatermaster's Store
TTITLE8=Man Of Mystery
TTITLE9=The Stranger
TTITLE10=F.B.I.
TTITLE11=Midnight
TTITLE12=The Frightened City
TTITLE13=Back Home
TTITLE14=Kon-Tiki
TTITLE15=36-24-36
TTITLE16=The Savage
TTITLE17=Peace Pipe
TTITLE18=Wonderful Land
TTITLE19=Stars Fell On Stockton
TTITLE20=Guitar Tango
TTITLE21=What A Lovely Tune
TTITLE22=Dance On
TTITLE23=All Day
EXTD=
EXTT0=
EXTT1=
EXTT2=
EXTT3=
EXTT4=
EXTT5=
EXTT6=
EXTT7=
EXTT8=
EXTT9=
EXTT10=
EXTT11=
EXTT12=
EXTT13=
EXTT14=
EXTT15=
EXTT16=
EXTT17=
EXTT18=
EXTT19=
EXTT20=
EXTT21=
EXTT22=
EXTT23=^^HEP^^
PLAYORDER=
